<svg width="30" height="41" viewBox="0 0 30 41" fill="none" xmlns="http://www.w3.org/2000/svg">
<path d="M17.1349 40.8065C17.5416 40.8065 17.8928 40.6085 18.1885 40.2125C18.4843 39.8165 18.6322 39.3462 18.6322 38.8018V25.2887H28.5028C28.9094 25.2887 29.2606 25.0907 29.5564 24.6947C29.8521 24.2987 30 23.8285 30 23.284V18.3837C30 17.8392 29.8521 17.369 29.5564 16.973C29.2606 16.577 28.9094 16.379 28.5028 16.379H18.6322V2.94017C18.6322 2.39569 18.4843 1.92545 18.1885 1.52947C17.8928 1.13348 17.5416 0.935486 17.1349 0.935486H12.9205C12.5139 0.935486 12.1627 1.13348 11.8669 1.52947C11.5712 1.92545 11.4233 2.39569 11.4233 2.94017V16.379H1.49723C1.09057 16.379 0.739372 16.577 0.443623 16.973C0.147874 17.369 0 17.8392 0 18.3837V23.284C0 23.8285 0.147874 24.2987 0.443623 24.6947C0.739372 25.0907 1.09057 25.2887 1.49723 25.2887H11.4233V38.8018C11.4233 39.3462 11.5712 39.8165 11.8669 40.2125C12.1627 40.6085 12.5139 40.8065 12.9205 40.8065H17.1349Z" fill="#FFBFBF"/>
</svg>
