<svg width="29" height="29" viewBox="0 0 29 29" fill="none" xmlns="http://www.w3.org/2000/svg">
<path d="M27.2939 27.2939C27.6839 26.904 27.6839 26.2718 27.2939 25.8818L24.0575 22.6454C22.0188 20.6067 22.0497 17.3382 22.7124 14.5322C22.9636 13.4682 23.0571 12.3638 22.9813 11.2541C22.7885 8.42889 21.5138 5.78681 19.4226 3.87746C17.3314 1.96812 14.5845 0.938516 11.7535 1.00284C8.92244 1.06717 6.22519 2.22047 4.22283 4.22283C2.22047 6.22519 1.06717 8.92244 1.00284 11.7535C0.938516 14.5845 1.96812 17.3314 3.87746 19.4226C5.78681 21.5138 8.42889 22.7885 11.2541 22.9813C12.3638 23.0571 13.4682 22.9636 14.5322 22.7124C17.3382 22.0497 20.6067 22.0188 22.6454 24.0575L25.8818 27.2939C26.2718 27.6839 26.904 27.6839 27.2939 27.2939ZM3.03307 12.0212C3.03307 10.2435 3.56021 8.50573 4.54783 7.02764C5.53546 5.54956 6.93921 4.39753 8.58157 3.71725C10.2239 3.03696 12.0311 2.85896 13.7747 3.20577C15.5182 3.55258 17.1197 4.40861 18.3767 5.66562C19.6337 6.92263 20.4897 8.52415 20.8366 10.2677C21.1834 12.0112 21.0054 13.8184 20.3251 15.4608C19.6448 17.1031 18.4928 18.5069 17.0147 19.4945C15.5366 20.4821 13.7988 21.0093 12.0212 21.0093C9.63818 21.0066 7.35356 20.0588 5.66854 18.3738C3.98352 16.6888 3.03571 14.4041 3.03307 12.0212Z" fill="#979797" stroke="#979797"/>
</svg>
